<svg width="136" height="136" viewBox="0 0 136 136" fill="none" xmlns="http://www.w3.org/2000/svg">
<path d="M0 68C0 30.4446 30.4446 0 68 0V0C105.555 0 136 30.4446 136 68V68C136 105.555 105.555 136 68 136V136C30.4446 136 0 105.555 0 68V68Z" fill="white"/>
<mask id="mask0_211_1009" style="mask-type:alpha" maskUnits="userSpaceOnUse" x="0" y="0" width="136" height="136">
<circle cx="68" cy="68" r="68" fill="#C4C4C4"/>
</mask>
<g mask="url(#mask0_211_1009)">
<path fill-rule="evenodd" clip-rule="evenodd" d="M65.5938 15.4297C64.4965 16.2131 55.0103 28.4326 54.2556 33.1833C53.5984 38.0228 53.67 49.4993 53.9949 48.1906C54.3198 46.8819 68.3982 17.4496 68.3982 17.4496C68.3982 17.4496 66.6911 14.6463 65.5938 15.4297Z" fill="#6F1924"/>
<path fill-rule="evenodd" clip-rule="evenodd" d="M29.3859 170.099C24.6325 168.521 44.528 122.216 27.5432 122.878C3.49235 123.816 -26.7909 176.002 -42.8865 196.397C-49.8415 205.206 -43.0321 216.727 -43.0321 216.727C-31.1164 220.161 -15.7701 217.985 -13.4913 214.926C0.147489 203.721 34.563 171.846 29.3859 170.099Z" fill="#1163A9"/>
<path fill-rule="evenodd" clip-rule="evenodd" d="M81.427 110.164C98.3718 109.503 142.309 123.391 142.309 123.391C142.309 123.391 152.717 194.87 150.004 239.171C148.732 259.947 156.049 289.393 147.923 291.381C103.131 302.34 38.8526 297.674 38.6072 291.381C38.3618 285.088 16.2114 206.926 19.5989 191.722C22.9863 176.519 19.6628 126.509 30.4038 121.806C45.4815 115.179 70.5575 110.588 81.427 110.164Z" fill="#1163A9"/>
<path fill-rule="evenodd" clip-rule="evenodd" d="M62.3048 80.5446C61.7343 82.7886 57.3765 106.01 57.3765 106.01C54.9325 113.233 47.7024 120.643 41.6601 122.36C41.6601 122.36 50.3112 134.521 66.4454 133.706C77.7971 133.171 105.334 116.267 105.334 116.267C99.2777 115.207 94.9286 112.137 91.251 104.596C90.169 88.9007 91.7288 80.6933 92.7508 70.748C92.7508 70.748 62.8716 78.2081 62.3048 80.5446Z" fill="#FECBB5"/>
<path fill-rule="evenodd" clip-rule="evenodd" d="M49.0478 28.7233C48.5315 33.5672 42.98 45.6415 42.98 45.6415L44.1855 54.3138C44.1855 54.3138 42.8445 58.2684 42.8532 64.3109C42.826 66.3334 45.4932 74.7619 44.924 77.2928C45.583 89.5849 46.5146 101.512 46.5146 101.512C61.5026 111.008 74.3046 103.011 93.3746 92.6713L102.572 23.1634C102.572 23.1634 49.5888 23.9686 49.0478 28.7233Z" fill="#FECBB5"/>
<path fill-rule="evenodd" clip-rule="evenodd" d="M96.0573 63.3926L98.0144 30.1692C97.6526 23.5523 64.2577 33.5205 55.161 30.5575C45.6285 27.4267 43.7174 16.2472 45.4522 10.8757C47.1871 5.50426 47.5724 6.54949 47.5724 6.54949C48.8942 8.87196 50.8589 10.3457 53.3927 10.703C52.2002 10.264 54.5288 3.86535 54.5533 3.95453C54.6567 6.8046 66.2044 10.5316 64.8398 9.46826C64.4699 9.18637 62.2609 5.76502 63.2077 5.31226C63.2077 5.31226 68.2418 6.61197 71.7379 7.27991C75.1436 7.9728 83.7697 5.69217 95.0394 8.05648C100.937 9.31004 103.693 16.1309 103.693 16.1309C103.693 16.1309 113.761 18.7303 115.484 29.578C116.447 35.5495 100.153 69.3997 100.153 69.3997C100.153 69.3997 102.009 56.1225 100.43 55.694C98.6698 55.3154 96.0573 63.3926 96.0573 63.3926Z" fill="#923424"/>
<path fill-rule="evenodd" clip-rule="evenodd" d="M38.4851 16.3452C39.5597 14.8977 47.3124 6.4248 47.3124 6.4248C47.3124 6.4248 44.8937 11.2213 51.0098 17.7881C57.1012 24.2657 59.8892 23.6894 59.8892 23.6894C62.0172 21.9517 61.6278 18.8926 60.4589 15.4726L72.7898 23.2057C74.0962 20.5429 73.5944 17.8986 71.3579 15.5403L87.0563 21.0982C87.513 19.0533 87.2884 17.0043 86.2774 14.98C86.2774 14.98 92.6995 14.8418 98.8924 25.8012C105.844 38.2787 92.8762 76.7775 92.8762 76.7775C92.8762 76.7775 102.15 36.8016 92.3923 33.0612C79.2009 27.964 67.5812 37.2103 54.6355 33.0049C41.6652 28.7103 38.4851 16.3452 38.4851 16.3452Z" fill="#6D2132"/>
<path d="M96.5876 56.5669C97.3094 52.6532 102.319 47.8986 106.775 48.2169C113.534 48.6605 114.67 56.4248 112.147 62.2717C110.577 65.7683 106.435 70.9928 102.597 70.7022C97.6166 70.3753 95.1205 64.0958 96.5876 56.5669Z" fill="#FECBB5"/>
<path d="M101.302 54.2C101.228 54.2337 101.154 54.2675 101.08 54.3012C102.147 52.2747 104.173 50.7357 106.655 50.8986C111.359 51.2201 112.176 56.7014 110.396 60.7776C110.342 60.8641 110.306 61.0032 110.178 61.1234C110.843 56.1381 107.914 51.4957 101.302 54.2Z" fill="#EC8E65"/>
<path d="M105.195 51.0806C105.195 51.0806 98.5463 52.1526 101.015 60.4636C102.842 60.0594 103.373 61.962 102.391 64.1871C102.887 65.064 103.669 65.3202 103.669 65.3202C103.669 65.3202 106.756 62.7475 105.501 59.5819C104.846 58.0422 102.582 57.7269 102.582 57.7269C102.582 57.7269 102.123 52.2984 105.195 51.0806Z" fill="#EC8E65"/>
<path fill-rule="evenodd" clip-rule="evenodd" d="M102.611 41.1985L103.466 27.3858L91.4381 27.8547C100.091 36.985 93.1729 67.3884 87.6376 78.4125C87.6376 78.4125 79.5406 78.7243 78.1515 77.5718C76.7624 76.4193 67.3786 72.7678 67.3786 72.7678L56.5562 74.5021L46.9213 74.1821L44.853 76.5751C44.7611 77.6558 45.5396 80.128 45.2238 82.5178L42.1415 105.628C70.7778 116.928 84.8851 100.952 97.0324 92.7116L100.833 69.7943C100.833 69.7943 97.0417 66.2265 96.9193 59.0639C96.7968 51.9013 101.859 48.2418 101.859 48.2418L100.565 39.0611L102.611 41.1985Z" fill="#923424"/>
<path fill-rule="evenodd" clip-rule="evenodd" d="M40.2896 111.334C38.0799 109.944 38.4961 109.185 40.3096 107.307C44.1416 103.338 48.8709 96.167 47.3201 95.0859L51.0757 105.182C52.7237 103.384 53.8207 101.355 52.7628 98.5759C54.7456 98.7012 55.885 102.129 55.7749 104.559C60.0809 102.509 60.0513 99.9261 60.2869 95.8312C61.8053 98.8672 63.982 101.818 67.1301 104.405L67.0722 98.1837L71.9393 101.352L71.0215 92.0102L77.9916 97.8619C79.3783 94.4094 79.4406 90.7461 77.1993 86.8539L85.4202 92.6489C86.8133 90.6339 87.1782 88.4224 85.1903 85.8037C87.6582 86.2752 90.117 87.4209 92.5822 90.004L92.4856 81.8748L97.1884 84.801L99.3113 90.599C100.815 94.7048 99.1569 99.2854 95.2978 101.341C85.7588 106.422 68.1849 115.119 58.1464 115.995C49.7662 116.736 43.79 113.536 40.2896 111.334Z" fill="#6D2132"/>
<path fill-rule="evenodd" clip-rule="evenodd" d="M50.2248 79.1257C50.7681 78.9761 69.0722 77.6384 69.0722 77.6384C69.0722 77.6384 73.6592 85.3349 70.437 89.1971C67.5938 92.6671 60.1474 92.5118 60.1474 92.5118L58.1841 89.9822L55.8182 93.4167C55.8182 93.4167 51.2096 94.0147 50.2732 92.7375C47.8663 89.6585 49.6816 79.2754 50.2248 79.1257Z" fill="#FECBB5"/>
<path fill-rule="evenodd" clip-rule="evenodd" d="M52.358 79.1076L68.8083 77.8661C68.8083 77.8661 71.5173 84.8268 60.2278 86.2918C51.7459 87.4163 52.358 79.1076 52.358 79.1076Z" fill="white"/>
<path d="M54.688 85.2813C53.4584 84.3386 53.2907 80.2482 53.1215 79.5955C54.2707 79.2789 67.2596 77.8739 68.7227 77.9795C67.2135 77.9132 61.5642 78.6035 60.1134 78.328C58.2501 77.9527 53.5211 78.062 51.8236 78.9473C50.3184 79.5598 54.0893 84.8223 54.688 85.2813Z" fill="#EC8E65"/>
<path fill-rule="evenodd" clip-rule="evenodd" d="M55.8348 88.5183C58.1066 88.2766 60.4936 88.0993 62.7486 88.1504C63.0449 88.1649 63.2092 88.4078 63.1678 88.6113C63.1511 88.9041 62.904 89.0682 62.6983 89.0288C60.4433 88.9777 58.1715 89.2193 55.8997 89.461C55.628 89.5359 55.3731 89.3179 55.3899 89.0251C55.4312 88.8216 55.6537 88.5682 55.8348 88.5183Z" fill="#EC8E65"/>
<path d="M84.4435 47.3438C85.7137 49.0604 89.5161 57.0562 78.2143 57.3653C66.9126 57.6744 68.0847 50.6307 69.2952 46.1465C70.2594 44.2893 82.4532 44.8004 84.4435 47.3438Z" fill="#FECBB5"/>
<path d="M81.499 55.4335C81.5129 57.4311 78.8252 57.0535 75.4826 57.0652C72.0842 57.0791 69.8733 57.5908 69.8552 55.4723C69.8372 53.3538 71.4201 50.8084 74.8184 50.7945C78.1611 50.7827 81.4767 53.1941 81.499 55.4335Z" fill="white"/>
<path d="M76.9903 51.7989C75.3204 51.8048 74.0492 53.669 74.0714 55.9049C74.0924 56.5086 74.2204 56.9872 74.4019 57.4031C75.3512 57.4863 76.6277 57.3751 78.1864 57.3736C78.798 57.3493 79.356 57.3876 79.8564 57.3677C80.0105 56.9988 80.1049 56.5115 80.0818 55.8474C80.0061 53.674 78.6046 51.7952 76.9903 51.7989Z" fill="#6D2132"/>
<path d="M74.1955 53.4169L76.7039 55.0716L73.8241 55.5491L74.1955 53.4169Z" fill="white"/>
<path d="M71.539 48.4629C72.9424 47.1318 75.4094 47.5197 76.8418 48.6168C77.1843 48.8461 76.8178 49.5287 76.4731 49.2387C75.272 48.3754 73.1433 48.0955 72.012 49.2336C71.637 49.6736 71.1062 48.8444 71.539 48.4629Z" fill="#EC8E65"/>
<path d="M69.8537 55.4789C70.4216 54.1839 70.2901 52.0079 74.4683 51.9631C78.3682 51.9294 80.9076 54.4338 81.4999 55.4403C81.4987 53.8045 80.214 50.5231 74.6298 50.1996C69.7154 49.9101 69.6214 53.6098 69.8537 55.4789Z" fill="#6D2132"/>
<path d="M46.3278 46.6726C45.1809 48.2521 44.1511 56.0303 52.0991 56.6434C61.8334 57.4173 59.7345 50.4391 58.9973 46.0846C58.2984 44.2897 48.0757 44.2739 46.3278 46.6726Z" fill="#FECBB5"/>
<path d="M45.8706 53.6785C45.7133 55.5604 47.2855 55.9214 50.1349 56.1712C53.3202 56.4682 55.4549 56.9884 55.608 54.9856C55.8167 52.9807 54.449 50.4938 51.6489 50.0606C48.7973 49.7503 46.075 51.5527 45.8706 53.6785Z" fill="white"/>
<path d="M52.4823 50.6766C51.0848 50.4904 49.7504 52.1146 49.5503 54.3583C49.4644 55.0869 49.5388 55.6278 49.7223 56.1039C50.2822 56.2025 50.8976 56.2989 51.6241 56.3909C52.6284 56.4718 53.5237 56.6175 54.2481 56.6491C54.4578 56.2782 54.6632 55.7866 54.6957 55.1207C54.8957 52.8769 53.9374 50.9209 52.4823 50.6766Z" fill="#6D2132"/>
<path d="M49.1699 51.8335L51.915 53.9016L49.3568 54.0033L49.1699 51.8335Z" fill="white"/>
<path d="M53.6491 48.5867C52.4474 47.149 50.0361 47.3472 48.4583 48.3318C48.1204 48.5501 48.3736 49.2059 48.7498 48.9861C50.0281 48.2182 52.0962 48.0849 53.0608 49.3271C53.4218 49.7738 54.0485 49.0318 53.6491 48.5867Z" fill="#EC8E65"/>
<path d="M55.6128 55.0508C55.2347 53.7945 54.6005 51.5797 51.1277 51.0517C47.8817 50.6358 46.4532 52.8115 45.8706 53.6822C45.9849 52.1642 47.3389 49.4466 50.9124 49.6678C55.0444 49.9274 55.9412 53.2821 55.6128 55.0508Z" fill="#6D2132"/>
<path d="M86.4697 47.7224C86.4697 47.7224 77.7314 42.8706 68.7153 47.4763C68.0504 45.054 69.021 43.3673 69.7006 43.1143C74.5135 41.2838 79.0737 40.3733 85.5456 44.5131C86.9624 45.5414 86.4697 47.7224 86.4697 47.7224Z" fill="#6F1924"/>
<path d="M41.7798 47.8536C41.7798 47.8536 48.9694 41.7464 57.8094 45.8608C58.1193 44.4 58.4509 40.9026 57.7651 40.7641C54.0185 40.0933 46.9269 39.0341 42.6068 44.7438C41.4207 46.3151 41.7798 47.8536 41.7798 47.8536Z" fill="#6F1924"/>
<path d="M55.7182 66.3003C55.0149 67.6766 56.4596 72.2711 56.8404 72.5766C57.1578 72.8313 60.6646 74.4059 62.4396 74.1263C64.0917 73.8512 65.6444 72.567 67.368 72.5558C68.6591 72.5075 68.8057 71.4892 67.5641 71.2158C65.3268 70.6598 63.3736 72.7586 61.2077 72.4665C59.2283 72.2208 57.6135 70.2022 57.4883 68.501C57.4784 68.2349 57.4684 67.9687 57.5814 67.6979C57.6944 67.4272 57.8709 67.2073 58.0494 67.0407C61.8476 58.3059 61.596 54.0646 59.5661 46.697C59.5109 48.5115 59.7451 54.7699 59.9338 56.5219C58.887 60.9655 57.7162 62.3969 55.7182 66.3003Z" fill="#EC8E65"/>
<path d="M123.606 121.671C123.606 121.671 139.297 118.716 144.3 124.096C166.777 148.268 185.09 181.357 185.09 181.357L184.944 177.604L185.886 171.621L190.228 168.914L215.994 184.877C215.994 184.877 220.054 187.35 217.707 192.89C216.761 195.125 215.525 191.32 213.483 198.509C213.685 203.713 206.038 225.618 196.56 229.858C192.221 231.799 182.127 229.626 180.226 228.431C154.22 212.084 133.865 197.057 119.889 182.257L123.606 121.671Z" fill="#1163A9"/>
<path d="M37.4193 124.471C39.5409 130.979 47.7176 145.159 63.7287 144.535C89.0605 143.547 108.097 128.764 113.476 117.658" stroke="#232056"/>
<g clip-path="url(#clip0_211_1009)">
<path d="M-24.8607 134.444C-24.1743 145.999 -38.4711 162.263 -57.3265 154.684C-58.1251 154.381 -59.0823 154.082 -59.7253 153.618C-59.7253 153.618 14.2922 219.447 28.0305 242.172L19.8669 196.767C19.8669 196.767 -15.3202 153.126 -24.8607 134.444Z" fill="#F2F6FA"/>
</g>
</g>
<defs>
<clipPath id="clip0_211_1009">
<rect width="97.767" height="147.525" fill="white" transform="translate(-66.272 125.84) rotate(-1.04401)"/>
</clipPath>
</defs>
</svg>
